<?xml version="1.0" encoding="utf-8"?>
<!-- Generator: Adobe Illustrator 24.1.0, SVG Export Plug-In . SVG Version: 6.00 Build 0)  -->
<svg version="1.1" id="Layer_1" xmlns="http://www.w3.org/2000/svg" xmlns:xlink="http://www.w3.org/1999/xlink" x="0px" y="0px"
	 viewBox="0 0 600 600" style="enable-background:new 0 0 600 600;" xml:space="preserve">
<style type="text/css">
	.st0{fill:#872214;}
	.st1{fill:url(#SvgjsPath3857_1_);}
	.st2{fill:#1B141C;}
	.st3{fill:#0C080C;}
	.st4{fill:#93614A;}
	.st5{fill:#A27662;}
	.st6{fill:#844E35;}
	.st7{fill:none;stroke:#652E15;stroke-width:4.5;stroke-miterlimit:12;}
	.st8{fill:url(#SvgjsPath3036_1_);}
	.st9{fill:#92002A;}
	.st10{fill:#A1103A;}
	.st11{fill:#830026;}
	.st12{fill:#64001D;}
	.st13{display:none;}
	.st14{display:inline;fill:#93614A;stroke:#652E15;stroke-width:4.5;stroke-miterlimit:12;}
	.st15{display:inline;fill:#652E15;}
	.st16{fill:#8B573F;}
	.st17{fill:url(#SvgjsPath3567_1_);}
	.st18{fill:#FFFFFF;}
	.st19{fill:#A96A47;stroke:#9A5731;stroke-width:2.25;stroke-miterlimit:12;}
	.st20{fill:#7B350F;}
	.st21{fill:#B87F60;}
	.st22{fill:#C8977C;}
	.st23{fill:url(#SvgjsPath3263_1_);}
	.st24{fill:#4D3623;stroke:#1F1105;stroke-width:1.5;stroke-miterlimit:12;}
	.st25{fill:#5C4633;}
	.st26{opacity:0.9;fill:#3E2816;enable-background:new    ;}
	.st27{opacity:0.8;enable-background:new    ;}
	.st28{fill:none;stroke:#1F1105;stroke-width:2.25;stroke-miterlimit:12;}
	.st29{opacity:0.5;fill:#FFFFFF;enable-background:new    ;}
	.st30{fill:url(#SvgjsPath3533_1_);}
	.st31{fill:url(#SvgjsPath3286_1_);}
	.st32{fill:url(#SvgjsPath3291_1_);}
	.st33{fill:#652E15;}
	.st34{fill:url(#SvgjsPath3270_1_);}
	.st35{fill:url(#SvgjsPath3543_1_);}
	.st36{fill:url(#SvgjsPath3306_1_);}
	.st37{fill:url(#SvgjsPath3311_1_);}
	.st38{fill:url(#SvgjsPath2753_1_);}
	.st39{fill:url(#SvgjsPath2757_1_);}
	.st40{fill:#2A232B;}
	.st41{opacity:0.1;fill:#2A232B;enable-background:new    ;}
	.st42{fill:#3A353A;}
	.st43{opacity:0.2;fill:#FFFFFF;enable-background:new    ;}
	.st44{opacity:0.4;fill:#FFFFFF;enable-background:new    ;}
	.st45{fill:#107AA8;}
	.st46{fill:#248BB7;}
	.st47{display:none;opacity:0.5;fill:#ECF0F1;enable-background:new    ;}
</style>
<g id="svga-group-wrapper" transform="scale(3 3)">
	<g id="svga-group-backs-single">
		<path id="SvgjsPath3856" class="st0" d="M225,225H-25V-25h250V225z"/>
		
			<radialGradient id="SvgjsPath3857_1_" cx="32.2221" cy="188.4328" r="150.0177" gradientTransform="matrix(3 0 0 -3 3.3333 665.3333)" gradientUnits="userSpaceOnUse">
			<stop  offset="0" style="stop-color:#CE6130;stop-opacity:0"/>
			<stop  offset="0.2" style="stop-color:#B55838"/>
			<stop  offset="1" style="stop-color:#DE7F3F;stop-opacity:0"/>
		</radialGradient>
		<path id="SvgjsPath3857" class="st1" d="M100,100L90-50h20L100,100z M72.4-47.8l-19.4,5L100,100L72.4-47.8z M36.5-36.3L19-26.6
			L100,100L36.5-36.3z M4.6-16.2L-10-2.5L100,100L4.6-16.2z M-21.3,11.2L-32,28.1L100,100L-21.3,11.2z M-39.6,44.1l-6.2,19L100,100
			L-39.6,44.1z M-49.1,80.6l-1.3,20L100,100L-49.1,80.6z M-49.2,118.3l3.7,19.6L100,100L-49.2,118.3z M-40,154.8l8.5,18.1L100,100
			L-40,154.8z M-22,187.9l12.8,15.4L100,100L-22,187.9z M3.7,215.5l16.2,11.8L100,100L3.7,215.5z M35.5,235.8l18.6,7.4L100,100
			L35.5,235.8z M71.3,247.6l19.8,2.5L100,100L71.3,247.6z M108.9,250.1l19.8-2.5L100,100L108.9,250.1z M145.9,243.1l18.6-7.4
			L100,100L145.9,243.1z M180.1,227.2l16.2-11.8L100,100L180.1,227.2z M209.2,203.3l12.8-15.4L100,100L209.2,203.3z M231.5,172.9
			l8.5-18.1L100,100L231.5,172.9z M245.5,137.9l3.8-19.6L100,100L245.5,137.9z M250.3,100.6l-1.3-20L100,100L250.3,100.6z
			 M245.7,63.2l-6.2-19L100,100L245.7,63.2z M232,28.1l-10.7-16.9L100,100L232,28.1z M210-2.5l-14.6-13.7L100,100L210-2.5z
			 M181-26.6l-17.5-9.6L100,100L181-26.6z M147-42.8l-19.4-5L100,100L147-42.8z"/>
	</g>
	<g id="svga-group-subwrapper">
		<g id="svga-group-hair-back" transform="rotate(1e-7 100 150)">
			<path id="SvgjsPath3734" class="st2" d="M41.3,215.3c0,0-0.1-0.1-0.1-0.1c3.9-1.4,108,7.4,115,6.3c0,0.1,0,0.2,0,0.3
				c0.3-0.1,0.2-0.1,0.3-0.4c0.3,0,1.1-0.2,0-0.5c3.5-63.5,43.6-53.3,20.5-111.3c-5.4-13.5-5-26.3-6.4-42.1
				c-1.8,1.8-1.2,11.1-3.5,28.3c17.1,53.5,2.4,51.2-11.5,76.9c-4.6,8.5-8.3,17.1-9.1,26.6c-22.7-39.2-16.1-38.3-7-62.1
				c-1.6,2.2-7.9,6.9-13.7,8c14.2-10.8,22.7-10.8,23-76.7c-13-6-24.9-17.2-32.2-29.8c-9.5,19.6-26.3,27.9-47.8,31.1
				c-5.3,2.7-10.9,5-16.5,7.1c-0.5,27.7,6.8,46.6,21.3,66.6c-5.1-3.6-10.3-9.6-14-14.8c4.4,8.8,10.9,16.1,9.2,31.9
				c-2,17.3-18.6,29.1-18.6,51.4c-16.3-25.4-21.8-14.6-18-42.3c-6.2-10.8-9.2-18.1-11.7-26c-0.6,0-1.6,0.1-2.1,0.2
				C11.3,170.7,21.5,190.5,41.3,215.3z"/>
			<path id="SvgjsPath3735" class="st3" d="M142.5,227.8h-90V97.2h90V227.8z"/>
			<path id="SvgjsPath3736" d="M156.5,221c3.5-63.5,43.6-53.3,20.5-111.3c-4.3-10.7-5-20.9-5.7-32.6c-0.2,0-0.4,0-0.6,0
				c0.3,11.4,0.5,21.5,3.9,31.3c20.9,61.4-17.7,48.8-18.3,112.6c-4.4-0.6-111.1-7.2-115-5.8c-14.1-20.7-24.4-40.8-22.3-63.4
				c-0.7-0.6-1.2-1.3-1.8-2c-4.3,23.9,5.8,42.6,24.1,65.5c0,0-0.1-0.1-0.1-0.1c3.9-1.4,108,7.4,115,6.3c0,0.1,0,0.2,0,0.3
				c0.3-0.1,0.2-0.1,0.3-0.4C156.7,221.4,157.5,221.2,156.5,221z"/>
		</g>
		<g id="svga-group-humanbody-single">
			<path id="SvgjsPath2761" class="st4" d="M190.9,199.9c-6-10.2-13.5-12-19.6-13.9c-6.3-2-19.3-3.2-26.4-4.6
				c-6.9-1.4-23.2-5.8-23.3-13.5c-0.2-8.1,4.3-40.1,4.3-40.1H74c0,0,4.5,32,4.3,40.1c-0.2,7.7-16.5,12.1-23.3,13.5
				c-7.1,1.4-20.1,2.6-26.4,4.6c-6.2,2-13.6,3.8-19.6,13.9c-3.6,6.2-6,16.1-6,27.1h194C196.9,216,194.5,206,190.9,199.9z"/>
			<path id="SvgjsPath2762" class="st5" d="M121.4,167.8c2.5,10.9,18.2,13.7,26.3,15.3c21.9,4.4,33.8,5.1,42.3,19.5
				c2.9,4.9,5.5,15.9,6,24.2c1.8,0.3,0.5-17.4-5.1-27c-9.7-16.5-29.1-15.1-46.1-18.5C137.9,180,121.6,175.5,121.4,167.8L121.4,167.8
				z M78.6,167.8c-0.2,7.7-16.5,12.1-23.3,13.5c-17,3.4-36.3,2.1-46.1,18.5c-5.7,9.6-7,27.3-5.1,27c0.5-8.3,3.1-19.2,6-24.2
				c8.5-14.4,20.4-15.2,42.3-19.5C60.4,181.5,76.1,178.8,78.6,167.8L78.6,167.8z"/>
			<path id="SvgjsPath2763" class="st6" d="M51.2,189.5c0,0,28.6,0.3,33.5,1.9c2.3,0.8,8.4,5.6,8.4,5.6s-6.6-3.2-8.7-3.8
				C79.5,191.9,51.2,189.5,51.2,189.5z M99.8,200c2.1,0,7.9-3.8,7.9-3.8s-5.6,2.1-7.3,2.2c-1.5,0.1-6.4-1.2-6.4-1.2
				S98.1,200,99.8,200z M117,192.8c6.8-1.8,29.8-3.2,29.8-3.2s-23.8-0.5-30.5,1.7c-2.3,0.8-7.6,5.2-7.6,5.2S114.8,193.4,117,192.8z"
				/>
			<path id="SvgjsPath2764" class="st7" d="M190.9,199.9c-9.7-16.5-29.1-15.1-46.1-18.5c-6.9-1.4-23.2-5.8-23.3-13.5
				c-0.2-8.1,4.3-40.1,4.3-40.1H74c0,0,4.5,32,4.3,40.1c-0.2,7.7-16.5,12.1-23.3,13.5c-7.1,1.4-20.1,2.6-26.4,4.6
				c-6.2,2-13.6,3.8-19.6,13.9c-3.6,6.2-6,16.1-6,27.1h194C196.9,216,194.5,206,190.9,199.9z"/>
		</g>
		<g id="svga-group-chinshadow-single">
			
				<linearGradient id="SvgjsPath3036_1_" gradientUnits="userSpaceOnUse" x1="32.1789" y1="164.6878" x2="32.1789" y2="199.6068" gradientTransform="matrix(3 0 0 -3 3.3333 665.3333)">
				<stop  offset="0" style="stop-color:#844E35;stop-opacity:0.8"/>
				<stop  offset="0.7" style="stop-color:#652E15"/>
			</linearGradient>
			<path id="SvgjsPath3036" class="st8" d="M74.8,128.5c0.6,4.3,3.1,22.8,3.9,33.5c6.2,3.6,11.4,9,21.3,9c9.7,0,15-5.3,21-8.8
				c0.8-10.7,3.3-29.3,3.9-33.7l0-0.1H74.8L74.8,128.5z"/>
		</g>
		<g id="svga-group-clothes-single">
			<path id="SvgjsPath3803" class="st9" d="M93.6,228.3c-8.6,0-18.5-0.1-30.2-0.4c-5.2-0.1-10.4-0.2-15.7-0.2
				c-8.1,0-15,0.1-21.8,0.3c-5.6,0.1-10.9,0.2-16.1,0.2c-4.2,0-8-0.1-11.5-0.2l-0.6,0l0-0.3c-0.5-6.3-0.3-11.2,0.7-14.6
				c2.7-9.6,11.8-22.2,13.3-22.8c17.2-5.6,22.1-5.9,26.7-6.8c1.8-0.1,3.6-0.2,6.1-0.6c1.8-0.3,3.5-1,5.2-1.7c2.1-0.8,4-1.6,5.8-1.6
				c0.6,0,1.1,0.1,1.6,0.3c0.2,0.1,0.4,0.2,0.6,0.3l0,0.1l0,0.2c0.5,4.2,1,7.8,1.4,10.9l0,0.1l0.1,0c11.8,1,26.3,2.3,40.9,2.3
				c15,0,29.1-1.3,40.8-2.3l0.1,0l0-0.1c0.4-3,0.9-6.6,1.4-10.8l0.1-0.5c0.1,0,0.3-0.1,0.6-0.2c0.5-0.2,1-0.2,1.6-0.2
				c1.7,0,3.6,0.8,5.6,1.5c1.6,0.7,3.3,1.3,5.1,1.7c1.2,0.2,2.5,0.3,3.7,0.3c0.3,0,0.6,0,1,0c11.1,1.6,12.5,1.8,27.6,6.8
				c0.1,0,0.2,0.1,0.3,0.1c0.4,0.1,0.9,0.3,1,0.6c1.6,2.9,3.2,5.4,4.8,7.9c5.1,8.1,9.6,15.1,10.1,27.5c0,0.1,0,0.2,0,0.3h-0.8
				c-40,0-59.7,0.7-75.5,1.3C116.5,227.9,107,228.3,93.6,228.3z"/>
			<path id="SvgjsPath3804" class="st10" d="M203.8,226.3c-0.3,0-0.6,0-0.9,0c-3.4-15.1-15.4-31.1-18.2-32.5
				c-10-5-30.4-7.4-40.5-11.4c-0.7,12.8-3.1,19.7-4.7,34.7c-1.4-7.7,2.1-31,2.7-36c0-0.2,0.1-1.2,0.1-1.2c1.7-0.4,2.1-1.1,7.7,1.1
				c4.5,1.8,5.6,1.9,8.8,2c13.7,0.5,15.9,3.4,28.6,6.9c2,0.6,0.1-1,6.2,8.6C198.9,206.6,203.3,213.6,203.8,226.3z M-3.8,226.3
				c0.3,0,0.6,0,0.9,0c3.4-15.1,15.4-31.1,18.2-32.5c10-5,30.3-7.4,40.4-11.4c0.7,12.8,3.2,19.7,4.8,34.7c1.4-7.7-2.1-31-2.7-36
				c0-0.2-0.1-1.2-0.1-1.2c-1.7-0.4-2.1-1.1-7.7,1.1c-4.5,1.8-5.6,1.9-8.8,2c-11.8,1.9-13.6,2.2-28.6,6.9c-1.9,0.8-0.1-1-6.2,8.6
				C1.1,206.6-3.3,213.6-3.8,226.3z"/>
			<path id="SvgjsPath3805" class="st11" d="M100.1,195.3c-14.4,0-28.8-0.9-40.5-1.9c-0.1-1.3,0,0.4-0.5-1.6l0.1,0
				c12.4,1.7,26.6,2.6,40.9,2.6c0,0,0,0,0,0c14.6,0,28.6-0.9,40.6-2.6l0.1,0l0,0.1c-0.1,0.8-0.2,1.1-0.3,1.9
				C128.3,194.7,101.1,195.3,100.1,195.3z M140.1,197.3c0.1-0.8,0.2-1.6,0.3-2.4l0-0.1l-0.1,0c-11.9,1.7-25.8,2.5-40.2,2.5
				c-14.1,0-28.1-0.9-40.4-2.5l-0.1,0l0,0.1c0.1,0.8,0.2,1.5,0.3,2.2C86.6,199.1,108.2,200.2,140.1,197.3z"/>
			<path id="SvgjsPath3806" class="st12" d="M203.9,226c-0.8-16.3-8-23.1-15-35.5c-0.2-0.4-1-0.6-1.4-0.7
				c-12.4-3.9-15.9-6.2-27.7-6.8c-1.6-0.1-3.1-0.1-4.7-0.4c-4.7-0.9-8.9-4.1-12.3-3c-0.2,0.1-0.4,0.2-0.6,0.3c0,0.2,0,0.4-0.1,0.5
				c-0.5,4.2-1,7.7-1.4,10.8c-24.5,2.9-57.9,2.6-81.6,0.1c-0.4-3.2-0.9-6.7-1.4-10.9c0-0.1,0-0.3,0-0.4c-0.2-0.1-0.4-0.2-0.7-0.3
				c-3.7-1.2-8.2,1.9-12.7,2.7c-8.4,1.5-8.8-0.1-32.8,7.8C9.9,190.7,0.9,203.6-1.8,213c-1.2,4-1.1,9.5-0.7,14.7c0,0.1,0,0.2,0,0.4
				c0.2,0,0.5,0,0.7,0c18.5,0.8,35.9-0.8,65.1-0.1c62.1,1.6,54.8-1.6,139.7-1.6c0.3,0,0.6,0,0.9,0
				C203.9,226.2,203.9,226.1,203.9,226z M140.7,191.8c-0.1,0.8-0.2,1.6-0.3,2.4c-26.4,2.7-55.5,2.7-80.8,0.1
				c-0.1-0.8-0.2-1.6-0.3-2.4C86.1,195.4,117.8,195,140.7,191.8z M139.8,198.7c-23.7,2.1-56,2-79.7,0c-0.1-1.2-0.3-2.5-0.5-3.9
				c26.6,3.5,57.9,3.1,80.6,0C140.1,196.2,140,197.5,139.8,198.7z M172.8,225.3c-6.5,0.1-13.1,0.1-19.6,0.2
				c-14.4,0.2-40.3,1.5-49.8,1.5c-43.2,0.1-33.5-0.4-52.8-0.5c-19.2,0-34.9,1.5-52.2,1.1c-0.1-7.4,0.5-12.4,3-17.5
				c3.3-6.9,6.2-12.4,11.1-18.2c0.1-0.2,0.4-0.2,0.6-0.3c5.1-1.9,11.2-4.2,17.9-5.7c8.2-1.8,12.7-1.1,17.9-3.5
				c3.5-1.6,6.1-3.2,8.5-2.5c0.1,4.2,0.3,7.7,0.7,11.1c0,0.2,0,0.4,0.1,0.5c0.1,0.8,0.2,1.7,0.3,2.5c0,0.2,0,0.4,0.1,0.6
				c0.2,1.3,0.3,2.6,0.5,3.9c0,0.2,0.1,0.4,0.1,0.6c0.6,4.7,1.2,10.2,1.7,17.9c0.6-7.2,0.4-12.3-0.2-17.7c26.3,3.4,57,3.1,79.5,0
				c-0.6,5.4-0.8,10.5-0.2,17.7c0.5-7.6,1.1-13.1,1.7-17.9c0-0.2,0.1-0.4,0.1-0.6c0.2-1.4,0.3-2.6,0.5-3.9c0-0.2,0-0.4,0.1-0.6
				c0.1-0.8,0.2-1.7,0.3-2.5c0-0.2,0.1-0.4,0.1-0.5c0.4-3.4,0.6-6.8,0.7-11c3.9-1.2,8.3,3.4,14.2,4c5.9,0.6,11.8,1.5,17.5,3.3
				c4.1,1.4,11.2,3.4,12.9,4.4c0.3,0.2,0.8,1.5,1,1.9c4.9,9.7,12.4,15.1,14.5,32.3C178.1,225.3,177.5,225.3,172.8,225.3z"/>
		</g>
		<g id="svga-group-head" transform="rotate(1e-7 100 150)">
			<g id="svga-group-ears-left" class="st13">
				<path id="SvgjsPath3563" class="st14" d="M47,84c-1.4-2.3-5.6-8-10-6.6c-2.7,0.9-3.3,3.8-3.7,6.3c-0.6,3.4,0.5,10.1,1.4,12.5
					c0.9,2.3,3.5,6.8,5.3,8.5c2.1,2.1,4.8,8.8,5.2,9.5c0.7,1.1,1.5,2.7,4.1,2.5c2.9-0.2,4.6-1.7,5.9-2C58.3,114.1,50.6,90,47,84z"/>
				<path id="SvgjsPath3564" class="st15" d="M44.2,98c-0.1-0.5,0-1.5,0.1-2.4c0.1-0.8,0.2-1.6,0.2-2.1c-0.3-2-1.8-5.9-2.8-8
					c-1.1-2.4-3-5.4-5.3-6.2c-1-0.3-1.6,0.1-1.9,0.5c-0.3,0.3-0.3,0.6-0.2,0.7c0.1,0,0.3-0.2,0.6-0.5c0.2-0.2,0.6-0.4,1.1-0.4
					c-0.2,1-1.2,6.5-0.7,10.2c0.3,2.9,1.6,5.1,1.8,5.5c0,0.3,0.1,0.7,0.1,1c0.9,4.3,5,9.2,6.4,10.8c0.3,0.3,0.5,0.5,0.6,0.4
					c0.1-0.1-0.1-0.4-0.4-0.7c-1.4-1.6-5.4-6.4-6.3-10.6c-1-4.4,2.3-10.9,3-12.3c0.4,0.6,0.7,1.3,0.9,1.8c0.2,0.4,0.4,0.9,0.6,1.4
					c-0.4,0.7-3.4,6-2.3,10.2c0.4,1.5,2.2,3.5,3.4,4.1c0.7,0.3,0.9,0.8,1.2,1.3c0.3,0.6,0.7,1.3,1.8,1.8c0.2,0.1,0.4,0.1,0.6,0.1
					c0.3,0,0.6-0.1,0.7-0.3c0,0.3,0,0.6,0,0.9c0,0.4,0,0.7,0.1,0.7c0.1,0,0.2-0.3,0.2-0.7c0-0.5,0-1.1-0.1-1.4
					c-0.2-0.9-1-1.8-1.8-2.9C45.2,99.9,44.4,98.8,44.2,98z M37,94.2c-2.2-6.7,0.7-12.5,1.1-13.5c0.8,0.8,1.6,1.8,2.2,2.8
					C39.9,84.4,37,89.7,37,94.2z M46.3,104c-1-0.4-1.3-1.1-1.7-1.6c-0.3-0.5-0.6-1.1-1.4-1.4c-0.2-0.1-0.4-0.2-0.5-0.3
					c-2.5-5.9,0.3-8.5,1-9c0.2,0.7,0.4,1.4,0.4,1.9c0.1,0.5-0.1,1.3-0.2,2c-0.1,0.9-0.3,1.9-0.1,2.5c0.2,0.9,1.1,2,1.9,3.1
					c0.7,0.9,1.5,1.9,1.7,2.7C47.4,104,47,104.3,46.3,104z"/>
			</g>
			<g id="svga-group-ears-right" class="st13">
				<path id="SvgjsPath3565" class="st14" d="M152.7,84c1.4-2.3,5.6-8,10-6.6c2.8,0.9,3.3,3.8,3.7,6.3c0.6,3.4-0.5,10.1-1.4,12.5
					c-0.9,2.3-3.5,6.8-5.3,8.5c-2.1,2.1-4.8,8.8-5.2,9.5c-0.7,1.1-1.5,2.7-4.1,2.5c-2.9-0.2-4.6-1.7-5.9-2
					C141.5,114.1,149.2,90,152.7,84z"/>
				<path id="SvgjsPath3566" class="st15" d="M153.7,100.9c-0.8,1-1.6,2-1.8,2.9c-0.1,0.3-0.1,0.9-0.1,1.4c0,0.4,0.1,0.7,0.2,0.7
					s0.1-0.3,0.1-0.7c0-0.3,0-0.7,0-0.9c0.2,0.2,0.4,0.3,0.7,0.3c0.2,0,0.4,0,0.6-0.1c1.1-0.5,1.5-1.2,1.8-1.8
					c0.3-0.5,0.5-1,1.2-1.3c1.2-0.5,3-2.5,3.4-4.1c1.1-4.2-1.9-9.4-2.3-10.2c0.2-0.5,0.4-1,0.6-1.4c0.2-0.5,0.6-1.1,0.9-1.8
					c0.7,1.4,4,7.9,3,12.3c-0.9,4.1-4.9,9-6.3,10.6c-0.3,0.3-0.4,0.6-0.4,0.7c0.1,0.1,0.3-0.1,0.6-0.4c1.4-1.6,5.4-6.5,6.4-10.8
					c0.1-0.3,0.1-0.7,0.1-1c0.2-0.3,1.5-2.5,1.8-5.5c0.4-3.7-0.6-9.2-0.7-10.2c0.5,0,0.8,0.1,1.1,0.4c0.3,0.3,0.5,0.5,0.6,0.5
					s0-0.4-0.2-0.7c-0.4-0.4-1-0.8-1.9-0.5c-2.3,0.8-4.1,3.8-5.3,6.2c-1,2.1-2.5,6-2.8,8c-0.1,0.5,0,1.3,0.2,2.1
					c0.1,0.9,0.3,1.8,0.1,2.4C155.3,98.8,154.5,99.9,153.7,100.9z M159.4,83.6c0.6-1,1.4-2,2.2-2.8c0.5,0.9,3.3,6.7,1.1,13.5
					C162.7,89.7,159.9,84.4,159.4,83.6z M152.3,103.8c0.3-0.8,1-1.7,1.7-2.7c0.8-1,1.7-2.1,1.9-3.1c0.1-0.6,0-1.6-0.1-2.5
					c-0.1-0.7-0.2-1.5-0.2-2c0.1-0.5,0.2-1.2,0.4-1.9c0.7,0.5,3.4,3.1,1,9c-0.2,0.1-0.4,0.2-0.5,0.3c-0.8,0.3-1.1,0.9-1.4,1.4
					c-0.3,0.6-0.7,1.2-1.7,1.6C152.7,104.3,152.4,104,152.3,103.8z"/>
			</g>
			<g id="svga-group-faceshape-wrap">
				<g id="svga-group-faceshape-single">
					<path id="SvgjsPath3033" class="st4" d="M100,0.9C66.4,0.9,39.1,28.1,39.1,61.6c0,5.3,0.7,10.5,2,15.4h0
						c0,0.1,8.1,35.2,11.8,46.8c2.8,8.6,14.3,21.6,22.4,24.9c7.8,3.2,13,10.7,24.6,10.7s16.8-7.5,24.6-10.7
						c8.1-3.3,19.6-16.3,22.4-24.9c3.7-11.5,11.8-46.7,11.8-46.8h0c1.3-4.9,2-10.1,2-15.4C160.9,28.1,133.6,0.9,100,0.9z"/>
					<path id="SvgjsPath3034" class="st16" d="M140.7,16.5c10.4,11,16.9,26.1,16.8,42.9c0,5.3-0.7,10.5-1.9,15.4h0
						c0,0.1-7.7,35.2-11.2,46.8c-2.6,8.6-13.5,21.6-21.2,24.9c-7.4,3.2-12.3,10.7-23.3,10.7c-11,0-15.9-7.5-23.3-10.7
						c-7.7-3.3-18.6-16.3-21.2-24.9C52,110,44.3,74.8,44.3,74.7h0c-1.2-4.9-1.9-10.1-1.9-15.4c0-16.7,6.4-31.9,16.8-42.9
						C46.9,27.6,39.1,43.7,39.1,61.6c0,5.3,0.7,10.5,2,15.4h0c0,0.1,8.1,35.2,11.8,46.8c2.8,8.6,14.3,21.6,22.4,24.9
						c7.8,3.2,13,10.7,24.6,10.7s16.8-7.5,24.6-10.7c8.1-3.3,19.6-16.3,22.4-24.9c3.7-11.5,11.8-46.7,11.8-46.8h0
						c1.3-4.9,2-10.1,2-15.4C160.9,43.7,153.1,27.6,140.7,16.5z"/>
					<path id="SvgjsPath3035" class="st7" d="M100,0.9C66.4,0.9,39.1,28.1,39.1,61.6c0,5.3,0.7,10.5,2,15.4h0
						c0,0.1,8.1,35.2,11.8,46.8c2.8,8.6,14.3,21.6,22.4,24.9c7.8,3.2,13,10.7,24.6,10.7s16.8-7.5,24.6-10.7
						c8.1-3.3,19.6-16.3,22.4-24.9c3.7-11.5,11.8-46.7,11.8-46.8h0c1.3-4.9,2-10.1,2-15.4C160.9,28.1,133.6,0.9,100,0.9z"/>
				</g>
			</g>
			<g id="svga-group-mouth-single">
				
					<linearGradient id="SvgjsPath3567_1_" gradientUnits="userSpaceOnUse" x1="32.2444" y1="174.7778" x2="32.2444" y2="178.7778" gradientTransform="matrix(3 0 0 -3 3.3333 665.3333)">
					<stop  offset="0.1" style="stop-color:#8B573F"/>
					<stop  offset="1" style="stop-color:#844E35"/>
				</linearGradient>
				<path id="SvgjsPath3567" class="st17" d="M99.9,141.1c-4.2,0-7.3-4.3-7.3-4.3c7.3,3.3,14.9,0,14.9,0S103.5,141.1,99.9,141.1z"/>
				<path id="SvgjsPath3571" class="st18" d="M112.1,131.9c0,0.6-7.8,3.5-12.3,3.6c-4.2,0.1-12.3-2.7-12.3-3.6
					c0-0.9,6.4-1.6,12.7-1.6C106.6,130.4,112.1,131.1,112.1,131.9z"/>
				<path id="SvgjsPath3572" class="st19" d="M95.4,127.9c1-0.1,2.7,0.9,4.8,0.9c1.5,0,3.4-1.1,4.6-0.9c2.5,0.3,3.9,1.9,10.5,2.5
					c0,0-3.2,1.1-4.1,1.1c-2.7,0.2-7.2-0.2-11.3-0.2c-4.6,0-8.9,0.4-11.7,0.3c-1-0.1-3.9-1.1-3.9-1.1
					C89.9,130.2,92.5,128.2,95.4,127.9z M84.4,130.8c0,0,4.5,3.5,6.3,4.8c2,1.4,5,3.6,9.5,3.6c3.6-0.1,6.6-1.8,8.5-3
					c2-1.3,6.8-5.5,6.8-5.5c-2.8,0.6-2.8,0.6-4.1,1.1c-2.7,1.1-7.5,2.7-11.2,2.7c-4.6,0-8.9-1.6-11.8-2.6
					C86.3,131.3,84.4,130.8,84.4,130.8z"/>
				<path id="SvgjsPath3573" class="st20" d="M115.6,130.6c-0.5,0.7-2.1,0.7-2.9,1c-1.1,0.4-2.2,0.9-3.3,1.2c-2.7,1-5.5,1.8-8.4,2
					c-5.3,0.4-10.6-1.8-15.6-3.4c-0.4-0.1-1-0.2-1.4-0.4c-0.3-0.2,0-0.8,0.3-0.7c1.1,0.2,2.1,0.7,3.1,1c1.2,0.3,2.6,0.2,3.8,0.1
					c1.6-0.1,3.2-0.1,4.8-0.2c2.9-0.1,5.8-0.1,8.8,0.1c2.6,0.1,5.4,0.4,7.9-0.3c0.7-0.2,1.4-0.4,2-0.7
					C115.2,130.1,115.9,130.1,115.6,130.6C115.4,130.8,115.6,130.5,115.6,130.6z M108.4,131.8c-3.4,0-6.8-0.3-10.2-0.2
					c-1.9,0-3.7,0.1-5.6,0.2c-0.6,0-1.6-0.1-2.1,0.2c-0.5,0.3,1.2,0.8,1.3,0.9c3.3,1,6.8,1.8,10.3,1.3c1.7-0.2,3.4-0.6,5-1.1
					c0.6-0.2,1.4-0.3,2-0.7C109.6,131.9,108.7,131.8,108.4,131.8C107.3,131.8,109.5,131.8,108.4,131.8z"/>
				<path id="SvgjsPath3574" class="st21" d="M99.9,138.1c-4.2,0-7.5-2.4-10.6-4.8c7.7,2.6,14.2,2.6,21.8-0.3
					C107.9,135.6,104.2,138.1,99.9,138.1z M93.6,130.5c5.6-0.3,11.1,0.2,16.7,0c-1.8-0.5-3.6-1.4-5.5-1.7c-1.5-0.1-3,0.9-4.5,0.9
					c-1.6,0-3.1-0.9-4.7-0.9c-2,0.3-3.9,1.2-5.9,1.8C91,130.6,92.3,130.5,93.6,130.5C95.5,130.4,92.2,130.5,93.6,130.5z"/>
				<path id="SvgjsPath3575" class="st22" d="M95.1,136c1.6,0.3,3.3,0.5,5,0.5c1.5,0,3-0.2,4.6-0.6c-1.4,0.6-3,1.1-4.7,1.1
					C98.3,137.1,96.5,136.7,95.1,136z"/>
			</g>
			<g id="svga-group-eyes-left">
				<g id="svga-group-eyesback-left">
					
						<radialGradient id="SvgjsPath3263_1_" cx="41.8974" cy="193.1248" r="15.117" gradientTransform="matrix(-2.9835 0.3126 -0.3126 -2.9835 258.8156 649.5571)" gradientUnits="userSpaceOnUse">
						<stop  offset="0" style="stop-color:#FFFFFF"/>
						<stop  offset="0.316" style="stop-color:#FCFDFD"/>
						<stop  offset="0.505" style="stop-color:#F4F7F8"/>
						<stop  offset="0.661" style="stop-color:#E5ECEF"/>
						<stop  offset="0.76" style="stop-color:#D8E2E7"/>
					</radialGradient>
					<path id="SvgjsPath3263" class="st23" d="M62,84.5c-0.5-2.3,5.2-4,12.7-3.1c7.5,0.9,12.7,5.5,12.1,7.8
						c-0.4,1.3-10.6,3.2-14.3,2.8C68.8,91.8,63.2,90,62,84.5z"/>
				</g>
				<g id="svga-group-eyesiriswrapper-left" transform="translate(-0.75 -0.5)">
					<g id="svga-group-eyesiriscontrol-left" transform="translate(1.0000000005838672e-7 0)">
						<g id="svga-group-eyesiris-left">
							<path id="SvgjsPath3527" class="st24" d="M83.2,89.2c-1.2,4.5-5.9,7.2-10.4,5.9c-4.5-1.2-7.2-5.9-6-10.4
								c1.2-4.5,5.9-7.2,10.4-5.9C81.8,80,84.4,84.7,83.2,89.2z"/>
							<path id="SvgjsPath3528" class="st25" d="M74,81.9l-0.2-0.4c-0.8,0.3-1.5,0.6-2.2,1l0.5,1.3L72,84.5l-2-1.2
								c-0.7,0.4-1.3,0.8-1.9,1.1l0,0l-0.7,0.8l1.1,1.1L67,87.2l0.6,0.9l2.6,0.3l-2.5,1.7l2.6-0.1L69,92.3l3.3-2l-0.9,3.3l1.9-3.1
								l0.4,3.3l0.5-2.9l0.5-0.1l0.7,3.3l0.2-1c0.3-0.1,1,1,1.3,0.9L76,90.5l1.8,3.6l-0.7-3.8l2.2,2.9c0.1,0,0.3-1.2,0.4-1.2
								L78.3,90l2.5,0.8l-1.5-1.6l-1.2-1l5.1,1.1l-2.8-1.7l2-0.8L78,86.3l4.3-2.3l-3.9,1l-1-0.6l-0.3-0.5l0.1-1.2l0.1-2l-1.8,3.1
								l-0.2-2.3L75.2,81c-0.4,0.1-0.7,0.2-1,0.4L74,81.9z"/>
							<path id="SvgjsPath3529" class="st26" d="M83.3,85.2c-7.4,0.3-11.2,1.9-16.6,3.7c-1-4.6,1.8-9.1,6.4-10.1
								C77.7,77.8,82.3,80.7,83.3,85.2z"/>
							<path id="SvgjsPath3530" class="st27" d="M76.2,84.2c-1.9-0.5-3.8,0.5-4.3,2.4c-0.5,1.9,0.6,3.8,2.5,4.3
								c1.9,0.5,3.8-0.5,4.3-2.4C79.2,86.6,78.1,84.7,76.2,84.2z"/>
							<path id="SvgjsPath3531" class="st28" d="M76.2,84.2c-1.9-0.5-3.8,0.5-4.3,2.4c-0.5,1.9,0.6,3.8,2.5,4.3
								c1.9,0.5,3.8-0.5,4.3-2.4C79.2,86.6,78.1,84.7,76.2,84.2z"/>
							<path id="SvgjsPath3532" class="st29" d="M68.8,92c0.9,1.4,2,2.4,3.7,2.8c1.9,0.4,2.1-2.1,0.7-2.4c-1-0.2-1.7-0.7-2.2-1.6
								C70,89.3,68,90.8,68.8,92L68.8,92z"/>
							
								<linearGradient id="SvgjsPath3533_1_" gradientUnits="userSpaceOnUse" x1="43.1471" y1="195.1029" x2="39.1471" y2="191.1029" gradientTransform="matrix(3 0 0 -3 -48.9167 666.8333)">
								<stop  offset="0" style="stop-color:#FFFFFF"/>
								<stop  offset="1" style="stop-color:#FFFFFF;stop-opacity:0"/>
							</linearGradient>
							<path id="SvgjsPath3533" class="st30" d="M76.5,83.4c1.3,0.3,2.1,1.1,2.7,2.3c1.2,2.3,4.7,0.3,3.5-2c-1.1-2-2.9-3.7-5.1-4.2
								C74.6,79,74.2,83,76.5,83.4L76.5,83.4z"/>
						</g>
					</g>
				</g>
				<g id="svga-group-eyesfront-left">
					<path id="SvgjsPath3285" class="st4" d="M55.5,88c0,13.8,8.1,25,18,25s18-11.2,18-25c0-13.8-8.1-25-18-25S55.5,74.2,55.5,88z
						 M62,84.5c-0.5-2.3,5.2-4,12.7-3.1c7.5,0.9,12.7,5.5,12.1,7.8c-0.4,1.3-10.6,3.2-14.3,2.8C68.8,91.8,63.2,90,62,84.5z"/>
					
						<radialGradient id="SvgjsPath3286_1_" cx="39.7031" cy="217.3456" r="16.003" fx="50.9561" fy="217.3766" gradientTransform="matrix(2.9994 6.240000e-02 -4.980000e-02 2.3994 -30.0499 -439.4799)" gradientUnits="userSpaceOnUse">
						<stop  offset="0" style="stop-color:#844E35"/>
						<stop  offset="0.7" style="stop-color:#844E35;stop-opacity:0.3"/>
						<stop  offset="1" style="stop-color:#93614A;stop-opacity:0"/>
					</radialGradient>
					<path id="SvgjsPath3286" class="st31" d="M72.5,92.2c3.6,0.4,13.9-1.6,14.3-2.8c0.7-2.3-4.5-6.9-12.1-7.8
						c-6.5-0.8-11.6,0.3-12.6,2.1c0.9-6.4,7.7-11.4,16-11.4c8.9,0,16.1,5.7,16.2,12.8c0,7.1-7.2,12.9-16.1,12.9
						c-8.9,0-16.1-5.7-16.2-12.8c0-0.1,0-0.2,0-0.3C63.3,90.1,68.9,91.8,72.5,92.2z"/>
					
						<radialGradient id="SvgjsPath3291_1_" cx="21.9122" cy="186.2779" r="29.525" gradientTransform="matrix(3.1008 0 0 -3.1008 1.8221 690.4807)" gradientUnits="userSpaceOnUse">
						<stop  offset="0.95" style="stop-color:#000000;stop-opacity:0"/>
						<stop  offset="1" style="stop-color:#000000;stop-opacity:0.3"/>
					</radialGradient>
					<path id="SvgjsPath3291" class="st32" d="M62,84.5c-0.5-2.3,5.2-4,12.7-3.1c7.5,0.9,12.7,5.5,12.1,7.8
						c-0.4,1.3-10.6,3.2-14.3,2.8C68.8,91.8,63.2,90,62,84.5z"/>
					<path id="SvgjsPath3295" class="st33" d="M62.3,79.4c4.2-2,9.3-2.2,13.8-1c2.4,0.6,5,1.3,7.1,2.6c1.9,1.1,3.5,2.5,5,4.2
						c-1.3-1.7-2.8-3.1-4.6-4.3c-2.3-1.4-4.8-2.3-7.4-2.9C71.7,76.9,66.5,77.2,62.3,79.4z"/>
					<path id="SvgjsPath3296" d="M57.3,81c0,0,2.3,0.9,3.6,0.6c-0.4-0.5-1.1-1.6-1.1-1.6s1.9,0.6,3.2,0c0.9-0.4,4.1-1,5.5-1.1
						c1.7-0.1,5.1,0.1,6.7,0.4c3.4,0.6,9,2.6,11.7,7.2c0.3,0.6,1.4,0.9,1.4,0.9s-1-0.2-1.1,0c-0.3,0.6,1.3,2,1.5,2.2
						c-0.2-0.1-1.3-1.1-1.7-1c-0.1,0-0.1,0.4-0.2,0.5c0.3-2.4-4.8-6.7-12.1-7.6c-7.5-0.9-13.2,0.7-12.7,3c1.2,5.3,6.8,7,10.5,7.4
						c2.5,0.3,8.3-0.6,11.7-1.5l1-0.3c-2,1-7.5,2.2-9.8,2.4c-0.7,0.1-2.2,0.1-3,0.1c-5.9-0.2-10.2-3.2-11.7-7.3
						c-0.1-0.3-0.5-0.6-0.8-0.7c-1.6-0.4-5.1-1.8-5.1-1.8c2.3,0.4,3.5,0.7,5.3,0.1C58.3,82.3,57.3,81,57.3,81z"/>
				</g>
			</g>
			<g id="svga-group-eyes-right">
				<g id="svga-group-eyesback-right">
					
						<radialGradient id="SvgjsPath3270_1_" cx="43.0022" cy="193.2406" r="15.117" gradientTransform="matrix(2.9835 0.3126 0.3126 -2.9835 -62.1481 649.5571)" gradientUnits="userSpaceOnUse">
						<stop  offset="0" style="stop-color:#FFFFFF"/>
						<stop  offset="0.316" style="stop-color:#FCFDFD"/>
						<stop  offset="0.505" style="stop-color:#F4F7F8"/>
						<stop  offset="0.661" style="stop-color:#E5ECEF"/>
						<stop  offset="0.76" style="stop-color:#D8E2E7"/>
					</radialGradient>
					<path id="SvgjsPath3270" class="st34" d="M138,84.5c0.5-2.3-5.2-4-12.7-3.1c-7.5,0.9-12.7,5.5-12.1,7.8
						c0.4,1.3,10.6,3.2,14.3,2.8C131.2,91.8,136.8,90,138,84.5z"/>
				</g>
				<g id="svga-group-eyesiriswrapper-right" transform="translate(0.75 -0.5)">
					<g id="svga-group-eyesiriscontrol-right" transform="translate(1.0000000005838672e-7 0)">
						<g id="svga-group-eyesiris-right">
							<path id="SvgjsPath3537" class="st24" d="M133.2,89.2c-1.2,4.5-5.9,7.2-10.4,5.9c-4.5-1.2-7.2-5.9-6-10.4
								c1.2-4.5,5.9-7.2,10.4-5.9C131.8,80,134.4,84.7,133.2,89.2z"/>
							<path id="SvgjsPath3538" class="st25" d="M124,81.9l-0.2-0.4c-0.8,0.3-1.5,0.6-2.2,1l0.5,1.3l-0.1,0.7l-2-1.2
								c-0.7,0.4-1.3,0.8-1.9,1.1l0,0l-0.7,0.8l1.1,1.1l-1.5,0.8l0.6,0.9l2.6,0.3l-2.5,1.7l2.6-0.1l-1.4,2.4l3.3-2l-0.9,3.3l1.9-3.1
								l0.4,3.3l0.5-2.9l0.5-0.1l0.7,3.3l0.2-1c0.3-0.1,1,1,1.3,0.9l-0.8-3.6l1.8,3.6l-0.7-3.8l2.2,2.9c0.1,0,0.3-1.2,0.4-1.2
								l-1.4-2.1l2.5,0.8l-1.5-1.6l-1.2-1l5.1,1.1l-2.8-1.7l2-0.8l-4.3-0.4l4.3-2.3l-3.9,1l-1-0.6l-0.3-0.5l0.1-1.2l0.1-2l-1.8,3.1
								l-0.2-2.3l-0.2-0.6c-0.4,0.1-0.7,0.2-1,0.4L124,81.9z"/>
							<path id="SvgjsPath3539" class="st26" d="M133.3,85.2c-7.4,0.3-11.2,1.9-16.6,3.7c-1-4.6,1.8-9.1,6.4-10.1
								C127.7,77.8,132.3,80.7,133.3,85.2z"/>
							<path id="SvgjsPath3540" class="st27" d="M126.2,84.2c-1.9-0.5-3.8,0.5-4.3,2.4c-0.5,1.9,0.6,3.8,2.5,4.3
								c1.9,0.5,3.8-0.5,4.3-2.4C129.2,86.6,128.1,84.7,126.2,84.2z"/>
							<path id="SvgjsPath3541" class="st28" d="M126.2,84.2c-1.9-0.5-3.8,0.5-4.3,2.4c-0.5,1.9,0.6,3.8,2.5,4.3
								c1.9,0.5,3.8-0.5,4.3-2.4C129.2,86.6,128.1,84.7,126.2,84.2z"/>
							<path id="SvgjsPath3542" class="st29" d="M118.8,92c0.9,1.4,2,2.4,3.7,2.8c1.9,0.4,2.1-2.1,0.7-2.4c-1-0.2-1.7-0.7-2.2-1.6
								C120,89.3,118,90.8,118.8,92L118.8,92z"/>
							
								<linearGradient id="SvgjsPath3543_1_" gradientUnits="userSpaceOnUse" x1="41.6459" y1="195.1041" x2="37.6459" y2="191.1041" gradientTransform="matrix(3 0 0 -3 5.5833 666.8333)">
								<stop  offset="0" style="stop-color:#FFFFFF"/>
								<stop  offset="1" style="stop-color:#FFFFFF;stop-opacity:0"/>
							</linearGradient>
							<path id="SvgjsPath3543" class="st35" d="M126.5,83.4c1.3,0.3,2.1,1.1,2.7,2.3c1.2,2.3,4.7,0.3,3.5-2c-1.1-2-2.9-3.7-5.1-4.2
								C124.6,79,124.2,83,126.5,83.4L126.5,83.4z"/>
						</g>
					</g>
				</g>
				<g id="svga-group-eyesfront-right">
					<path id="SvgjsPath3305" class="st4" d="M126.5,63c-9.9,0-18,11.2-18,25c0,13.8,8.1,25,18,25s18-11.2,18-25
						C144.5,74.2,136.4,63,126.5,63z M127.5,92.2c-3.6,0.4-13.9-1.6-14.3-2.8c-0.7-2.3,4.5-6.9,12.1-7.8c7.5-0.9,13.2,0.8,12.7,3.1
						C136.8,90,131.2,91.8,127.5,92.2z"/>
					
						<radialGradient id="SvgjsPath3306_1_" cx="38.5923" cy="217.3745" r="16.003" fx="49.8453" fy="217.4055" gradientTransform="matrix(-2.9994 6.240000e-02 4.980000e-02 2.3994 226.7166 -439.4799)" gradientUnits="userSpaceOnUse">
						<stop  offset="0" style="stop-color:#844E35"/>
						<stop  offset="0.7" style="stop-color:#844E35;stop-opacity:0.3"/>
						<stop  offset="1" style="stop-color:#93614A;stop-opacity:0"/>
					</radialGradient>
					<path id="SvgjsPath3306" class="st36" d="M127.5,92.2c-3.6,0.4-13.9-1.6-14.3-2.8c-0.7-2.3,4.5-6.9,12.1-7.8
						c6.5-0.8,11.6,0.3,12.6,2.1c-0.9-6.4-7.7-11.4-16-11.4c-8.9,0-16.1,5.7-16.2,12.8c0,7.1,7.2,12.9,16.1,12.9
						c8.9,0,16.1-5.7,16.2-12.8c0-0.1,0-0.2,0-0.3C136.7,90.1,131.1,91.8,127.5,92.2z"/>
					
						<radialGradient id="SvgjsPath3311_1_" cx="20.8372" cy="186.2779" r="29.525" gradientTransform="matrix(-3.1008 0 0 -3.1008 194.8445 690.4807)" gradientUnits="userSpaceOnUse">
						<stop  offset="0.95" style="stop-color:#000000;stop-opacity:0"/>
						<stop  offset="1" style="stop-color:#000000;stop-opacity:0.3"/>
					</radialGradient>
					<path id="SvgjsPath3311" class="st37" d="M138,84.5c0.5-2.3-5.2-4-12.7-3.1c-7.5,0.9-12.7,5.5-12.1,7.8
						c0.4,1.3,10.6,3.2,14.3,2.8C131.2,91.8,136.8,90,138,84.5z"/>
					<path id="SvgjsPath3315" class="st33" d="M137.7,79.4c-4.2-2-9.4-2.2-13.8-1c-2.4,0.6-5,1.3-7.1,2.6c-1.9,1.1-3.5,2.5-5,4.2
						c1.3-1.7,2.8-3.1,4.6-4.3c2.3-1.4,4.8-2.3,7.4-2.9C128.3,76.9,133.5,77.2,137.7,79.4z"/>
					<path id="SvgjsPath3316" d="M142.7,81c0,0-2.3,0.9-3.6,0.6c0.4-0.5,1.1-1.6,1.1-1.6s-1.9,0.6-3.2,0c-0.9-0.4-4.1-1-5.5-1.1
						c-1.7-0.1-5.1,0.1-6.7,0.4c-3.4,0.6-9,2.6-11.7,7.2c-0.3,0.6-1.4,0.9-1.4,0.9s1-0.2,1.1,0c0.3,0.6-1.3,2-1.5,2.2
						c0.2-0.1,1.3-1.1,1.7-1c0.1,0,0.1,0.4,0.2,0.5c-0.3-2.4,4.8-6.7,12.1-7.6c7.5-0.9,13.2,0.7,12.7,3c-1.2,5.3-6.8,7-10.5,7.4
						c-2.5,0.3-8.3-0.6-11.7-1.5l-1-0.3c2,1,7.5,2.2,9.8,2.4c0.7,0.1,2.2,0.1,3,0.1c5.9-0.2,10.2-3.2,11.7-7.3
						c0.1-0.3,0.5-0.6,0.8-0.7c1.6-0.4,5.1-1.8,5.1-1.8c-2.3,0.4-3.5,0.7-5.3,0.1C141.7,82.3,142.7,81,142.7,81z"/>
				</g>
			</g>
			<g id="svga-group-facehighlight-single">
				
					<radialGradient id="SvgjsPath2753_1_" cx="32.2222" cy="184.0881" r="40.0343" gradientTransform="matrix(3 0 0 -3 3.3333 665.3333)" gradientUnits="userSpaceOnUse">
					<stop  offset="0" style="stop-color:#A27662;stop-opacity:0.5"/>
					<stop  offset="0.9" style="stop-color:#93614A;stop-opacity:0"/>
				</radialGradient>
				<path id="SvgjsPath2753" class="st38" d="M140.2,113c0,22.3-18,40.4-40.3,40.4c-22.3,0-40.4-18-40.4-40.3
					c0-22.3,18-40.4,40.3-40.4C122.1,72.7,140.2,90.7,140.2,113z"/>
				
					<radialGradient id="SvgjsPath2757_1_" cx="32.2222" cy="202.7778" r="36" gradientTransform="matrix(3 0 0 -3 3.3333 665.3333)" gradientUnits="userSpaceOnUse">
					<stop  offset="0" style="stop-color:#A27662;stop-opacity:0.5"/>
					<stop  offset="0.9" style="stop-color:#93614A;stop-opacity:0"/>
				</radialGradient>
				<path id="SvgjsPath2757" class="st39" d="M135,56c0,19.3-15.7,35-35,35S65,75.3,65,56s15.7-35,35-35S135,36.7,135,56z"/>
			</g>
			
				<g id="svga-group-eyebrows-left" transform="rotate(-10.714285714285715 73.39433479309082 70.48908911214599) translate(-5.838672220806777e-17 1.0000000005838672e-7)">
				<path id="SvgjsPath3576" class="st40" d="M54.4,75c9.7-15.1,36.5,5.1,38-1.2c0.3-1.3-0.4-2-1.6-2.5C77.2,65.8,59.2,61.2,54.4,75
					z"/>
			</g>
			
				<g id="svga-group-eyebrows-right" transform="rotate(10.714285914285714 126.60566711425781 70.48908911214599) translate(5.838672220806777e-17 1.0000000005838672e-7)">
				<path id="SvgjsPath3577" class="st40" d="M145.6,75c-9.7-15.1-36.5,5.1-38-1.2c-0.3-1.3,0.4-2,1.6-2.5
					C122.8,65.8,140.8,61.2,145.6,75z"/>
			</g>
			<g id="svga-group-nose-single">
				<path id="SvgjsPath3174" class="st6" d="M96.8,85.8c0,0-1.4,11.1-2,13.3c-1.4,4.8-6.2,11.4-5.2,14.4c1.9,6,7.5,4.5,10.5,4.5
					c2.8,0,8.1,1.6,9.2-2.4c0.4-1.3-0.4-4.5-0.4-4.5s-2.6,3.1-8.9,2.8c-1.8-0.1-4.7-2.1-4.7-4.9c0-3.8,1.8-7,2.2-10.8
					C97.7,95.3,96.8,85.8,96.8,85.8z"/>
				<path id="SvgjsPath3175" class="st33" d="M105.2,116.2c1.1,0,1.4,0.3,1.4,0.7c0,0.4-0.3,1-1.4,0.7c-1.1-0.3-3.1-0.2-3.1-0.2
					S104.1,116.2,105.2,116.2z M94.9,116.2c-1.1,0-1.4,0.3-1.4,0.7c0,0.4,0.3,1,1.4,0.7c1.2-0.3,3.1-0.2,3.1-0.2
					S96,116.2,94.9,116.2z M108.8,111.1c0,0,1.5,1.9,1.2,4c-0.3,2-3.3,2.9-3.3,2.9s2.1-1.5,2.3-3.4
					C109.1,113.7,108.8,111.1,108.8,111.1z M90.4,109.1c0,0-1.1,2.7-0.8,4.4c0.6,3,3.7,4.2,3.7,4.2s-2-2-2.7-3.8
					C89.9,111.8,90.4,109.1,90.4,109.1z"/>
				<path id="SvgjsPath3176" class="st5" d="M105.1,112.5c1-0.9,1.1-1.4,0.9-1.7c-0.2-0.3-0.8-0.5-1.7,0.5c-1,1.2-3.1,2.1-3.1,2.1
					S104.1,113.4,105.1,112.5z"/>
			</g>
			<g id="svga-group-hair-front">
				<path id="SvgjsPath3738" class="st41" d="M51.4,214.4c-15.7-25.1-21.3-14.9-17.7-42.5c-5.2-9.4-9.4-18.8-12.2-28.8
					c-5.6-21.5,0.1-35.3,5.1-50.9C21.9,26.8,59.3-9,100.7-9c32.3,0,67.2,23.5,67.5,75.2c-0.5,9.5-1.9,25.3-3,32.2
					c17.8,55,2.5,50.6-11.1,76.4c-3.7,7-8,17.3-8.9,27.6c-18.7-33.2-17-38.3-10.7-53.4c7.5-18,4.5-4.1-10-2.4
					c13.6-10.5,22.7-10.5,23-75.8c0,0,0-0.1-0.1-0.1c-12.4-5.9-24-17-31.3-29.8c0,0,0,0-0.1,0c0,0,0,0,0,0c0,0-0.1,0-0.1,0.1
					c-8.3,17.8-22.6,27.4-46.3,31.1c-4.6,2.4-9.7,4.7-16.1,7.1c0,0-0.1,0.1-0.1,0.1c-0.4,25.7,5.5,43.9,20.3,65.2
					c-7.1-3.3-12.7-12.7-12.7-12.7c-0.4,0,2.5,5,2.7,5.3C83.6,172.2,51.6,183.5,51.4,214.4z"/>
				<path id="SvgjsPath3739" class="st40" d="M50.1,212.3c-16.2-25.1-21.9-14.9-18.2-42.5c-5.4-9.4-9.6-18.8-12.5-28.8
					c-5.8-21.5,0.1-35.3,5.3-50.9C19.7,24.7,58.3-11.1,100.8-11.1c33.2,0,69.1,23.5,69.4,75.2c-0.5,9.5-2,25.3-3.1,32.2
					c18.3,55,2.6,50.6-11.4,76.4c-3.8,7-8.2,17.3-9.2,27.6c-19.2-33.2-17.5-38.3-11-53.4c7.7-18,3-4.1-10.3-1.2
					c14-10.5,23.4-11.7,23.7-77c0,0,0-0.1-0.1-0.1c-12.7-5.9-24.7-17-32.2-29.8c0,0-0.1,0-0.1,0c0,0,0,0,0,0c0,0-0.1,0-0.1,0.1
					C108,56.5,93.3,66.1,68.9,69.8c-4.8,2.4-10,4.7-16.6,7.1c0,0-0.1,0.1-0.1,0.1c-0.4,25.7,5.6,44.9,20.9,66.2
					c-7.3-5.4-13.1-13.7-13.1-13.7c-0.4,0,2.6,5,2.7,5.3C83.2,170.1,50.3,181.4,50.1,212.3z"/>
				<path id="SvgjsPath3740" class="st2" d="M27.3,109.9c-0.8-7.7-12.7-57.5,16.8-93.9C30.1,43.1,26.1,79.8,27.3,109.9z M167.5,94
					c4.4-30.4,5.6-63.1-19.4-86.7C160.5,31.5,169.1,49.2,167.5,94z M143.1,22.9c-2.4,11.1,1.7,25.7,3.1,35.7
					c-7-5.6-11.2-13.6-16-24.6c1.1,6.2,3.5,17.4,17,31.3c-21.8-19.5-26.5-29.3-22.9-52.5c-0.2,0.9-0.4,1.7-0.6,2.5
					c0.5-2.5,0.9-5.3,1.3-8.3c-3.2,18-27.1,50-47.1,56.9c-3,3-5.7,3.2-9,5.9C96.2,65.7,113.3,50.1,117,39
					c7.4,12.2,20.9,23.5,33.2,29.3C152,52.1,146.2,42.1,143.1,22.9z M101.5,23.6c-9,15-14.4,24.5-28.4,33.5
					c4.5-3.6,7.7-9.7,9.5-14.9C77.2,50.3,68.6,55.4,61,62c7.5-8.3,17.6-19.9,24-30.9c-6.4,8.6-16.8,15.3-26,23
					c7.3-6,13-13.7,17-21.7c-2.8,3.7-7.9,6.5-14,12.6c9-12,9.9-17.5,12.4-22.4c-6.2,10.5-11.7,14.1-17.8,19.3
					c-4.2,17.7-4.5,25.4-5.3,35.1c0,0.5,17.1-7,17.5-7.2c0,0,0,0,0,0C84.9,56.2,91.5,42.1,101.5,23.6z M60,137
					c2.8,11.2,1.2,21.1-2.5,32.7c-0.5-10.8-8.5-21.8-14.4-31.5c1.4,20.7,3.6,30.4,0.1,46.1c-1.9-28.6-7.8-38.3-16.6-59.4
					c-3.5,13.4-2.7,30.9,5.3,44.8c-3.8,27.5,2,17.4,18.2,42.5c0.2-30.9,33.1-42.2,12.7-77.5c-0.2-0.3-3.1-5.3-2.7-5.3
					c0,0,5.8,8.3,13.1,13.7C50.9,119,45.1,88.5,44.5,55.5C39.5,95.2,54,117,60,137z M169.1,101.5c0.9,16.9,5.4,38.2-9.3,51.9
					c6-10,3.1-23.4,0.1-33.4c0.4,26.8-10.8,42.8-13.8,60.4c-0.5-8.1-2.3-17.9,1.5-31c-3.7,6.4-7.8,13.8-9.4,22.7
					c-5.2-9.8-2.4-17.3-0.5-26.8c7.8-8.2,13.2-23.8,14.3-33.9c-0.9,8.3-6.3,20.7-12.5,25.9c0,0-0.5,1.8-1.1,3.8c0-0.3,0.1-0.7,0.1-1
					c-8.9,21-13.3,23.1,8,60.2c0.8-9.4,4.7-19.4,9.2-27.6C169.2,147.9,184.4,150.5,169.1,101.5z"/>
				<path id="SvgjsPath3741" class="st42" d="M155.3,79.8c4.3-17.4-2.3-44.2-5.7-49.4C154.9,38.5,162,60.5,155.3,79.8z M159.4,87.7
					c0.5-2.4,14.1-28.7-9-65.9C171.3,59.8,159.9,85.3,159.4,87.7z M34.1,55.4c1-0.4,7.4-47.3,48.4-56.1
					C39.4,6.9,35.1,54.9,34.1,55.4z M39.8,99.8c0-1-8.2-47.4,14.7-77.1C28,54,39.7,98.8,39.8,99.8z M43,131.2
					c-1.4-1.9-13.1-33.3-7.7-69.1C25.3,99.6,42.3,130.2,43,131.2z M153.4,30.8c-1-0.3-13.1-35-37.8-31.6
					C137.2-2,152.4,30.5,153.4,30.8z M132.8,48.8c0,0-9.4-14.8-6-39.1C123.6,24.6,123.9,34.8,132.8,48.8z M135.4,37.3
					c2.6,7.2,8.1,14.9,9,15.5c-1-0.7-9.7-13.3-11.7-34.2C132.9,24.8,133.3,31.3,135.4,37.3z M88.1,57.4c8-7.8,25.8-15.4,36-52.4
					C113.2,39.2,96.6,49.2,88.1,57.4z M88.2,27c7-6.7,9.5-13.5,9.4-19.9C96.9,13.5,93.4,22,88.2,27z M78.1,30.3
					c0.4,0,1.3-1.1,1.6-1.4c8-7,11.6-12.6,12.4-22.2C91,17.7,79.1,30.3,78.1,30.3z M76.8,28.4c0,0,8.2-9.7,11.2-23.3
					C84.9,15.9,76.8,28.4,76.8,28.4z M56.4,153.7c0.6-1,1.9-20.3-7.6-28.2C54.8,131.6,57,152.7,56.4,153.7z M56.4,153.7
					c-0.5-7.8-7.5-13.9-9-23.6C48,142.5,55.6,146.9,56.4,153.7z M41.1,160.4c-1-2.2,3.7-12.5-10.3-34.3
					C42.2,146.7,40.6,159.3,41.1,160.4z M41.1,159.1c-1.2-4.4,0.9-13.7-4.3-29C39.5,140.2,39.6,153.4,41.1,159.1z M150,131.3
					c-4.1,8.1-12.5,13.7-10.3,33.8c-0.2-1.9,0.2-3.9,0.3-5.8c2-25,8.7-5.7,16-52.2C154.3,114.2,152.9,125.6,150,131.3z M147.7,167.7
					c0.4-1.5,0.3-3.1,0.6-4.6c2.2-12.6,7-19.4,7.4-39.7C154.8,139.9,147.5,153.5,147.7,167.7z M165.1,141c0.5-3.1,6.8-7.9,2-32.9
					C169.8,133.7,165.6,138,165.1,141z M165.1,141.1c0.4-1,3.1-17.9-3.7-30.6C166.2,120.7,165.5,140.1,165.1,141.1z"/>
				<path id="SvgjsPath3742" d="M18.9,151.8c0.2-2.6,0.6-5.2,1.2-7.8c2.5,7.8,5.5,15.1,11.7,25.9c-3.8,27.7,2.1,17.4,18.4,42.8
					c0-22.3,17.1-34.6,19-51.9c1.8-15.8-4.8-22.4-9.2-31.2c3.7,5.1,8.5,10.4,13.6,14.1c-14.5-20.1-21.7-39-21.3-66.6
					c5.6-2.1,11.2-4.4,16.5-7.1c21.5-3.3,38.3-11.5,47.8-31.1c7.3,12.6,19.2,23.8,32.2,29.8c-0.3,65.9-9.8,66.4-24,77.2
					c5.8-1.1,12.8-5.7,14.3-7.9c-9.1,23.8-15.2,23.5,7.5,62.7c0.8-9.6,4.6-19.4,9.2-27.9c13.9-25.6,29.7-22.3,11.4-77.3
					c1.5-9.5,2.8-18.7,3-27.8c0.2,3.2,0.3,6.4,0.4,9.4c0.2,0,0.4,0,0.6,0c-0.3-4.1-0.5-8.3-1-12.9C169.7-42.3,14.9-38.1,24.6,90
					c-5.2,15.9-11.1,29.5-5.3,50.9c-0.9,3-1.6,5.9-2.1,8.7C17.7,150.5,18.2,151.2,18.9,151.8z M25,94.3c0.1,1,3.7,27.7,1.3,8.1
					C8.5-41.9,192.5-51.9,166.1,101.9c-1.8,10.5-0.8,5.5,1-5.1c17.3,58.2-3.8,45.6-18.3,87.4c-1.4,3.9-2.3,9-2.7,13.1
					c-21.6-38.1-11.2-41.5-5.6-60.7c6.6-7.3,10.6-15.9,11.7-26.5c-2.6,18-14.4,30.1-24.2,34.1c5.1-3.4,10.4-7,13.6-12.4
					c2-2.1,11.8-26.2,8.1-72c-1.7-20.1-8.4-26.1-6.9-34.7c-1.4,6.7,2.4,11.3,4.7,25.1c1.1,6.5,1.4,15.8,1.4,17.6
					c-10.9-6-24.9-18.9-31.8-29.8c4.5-9.1,6.8-23.1,8.6-31.9c-5.4,22.1-9.2,52.5-53.8,62.3c7.2-4,23-12.2,39.2-45.4c0,0,0,0,0,0
					c8.7-17.1,0.6-2-0.1-0.8c0,0,0-0.1,0,0C91,58.2,74.7,67.5,52.4,76.7c0-0.7,0-1.4,0-2C79.9,65.8,97,33,91.5,41.1
					c-8.9,13-24.2,28-39.1,33.3c0-1,0.2-4.3,0.5-7.1c19.2-13.6,23.4-20.8,30.9-33.8c0.6-1,1-1.8,1.5-2.5
					c-4.5,6.8-16.3,23.2-32.3,35.7c0.4-4.6,1.1-9.2,1.9-13.8c0.9-1.2,8.8-7.6,15.3-20.7c3.1-6.2,4.3-9.6,4.3-9.6
					c-0.9,1.6-6,13.4-19.3,28.8c2.2-12.1,5.2-23.1,8.6-35c-5.8,17.9-11.4,37.3-13,56.8c-0.5,1-1.4,38,17.2,64
					c-28.8-30.9-24.1-69-23.9-81.7c-0.1,0-0.8,10.3-0.8,11.1c-3.9,51.4,25.6,63.9,24,90.6c-1.2,19.5-17.3,30.4-17.5,53.9
					c-12.6-22-19.8-15.6-16.8-39.3c0.1-1,1.1-8.3,0.1-15.3c-1.7-11.3-4.1-14.5-3.8-16.9c-0.3,1.4,0.4,2.9,1.4,6.7
					c1.9,6.7,2.2,15.7,1.3,22.7C15.4,136.3,17.7,119,25,94.3z"/>
			</g>
			<g id="svga-group-glasses-single">
				<path id="SvgjsPath3588" class="st43" d="M143.6,100.1c-2.4,2.2-6.2,3-13.6,3c-9.8,0-16.2-1.1-20.4-9.5c-3.3-6.5-4.6-13.6-3-16
					c2.2-3.3,8.6-5.6,15.7-6.3C134.6,77.2,143.3,89,143.6,100.1z M72,71.2c-7.6,0.2-15.1,2.3-18.3,7.1c-2.2,3.2-1.7,12.6-0.2,16.9
					c2,6,5.1,8,16.4,8c9.8,0,16.2-1.1,20.4-9.5c0.4-0.8,0.8-1.7,1.2-2.5C88.3,82.9,81.2,75.4,72,71.2z"/>
				<path id="SvgjsPath3589" class="st44" d="M146.5,95.2c-0.7,2.1-1.6,3.7-2.9,4.9c-0.3-11.1-9-22.9-21.3-28.7c9.4-0.9,20,1,24,6.9
					C148.4,81.4,147.9,90.8,146.5,95.2z M93.4,77.7c-2.8-4.2-12.2-6.7-21.4-6.5c9.2,4.2,16.3,11.8,19.5,19.9
					C93.9,85.4,94.8,79.8,93.4,77.7z"/>
				<path id="SvgjsPath3590" class="st45" d="M151.8,73.6c-10.2-5.5-36.1-7-45.5,0.2c-0.8,0.5-4.2-0.5-6.3-0.5
					c-1.9,0-5.4,1.1-6.3,0.5c-9.4-7.2-35.3-5.6-45.5-0.2c-1.5,0.8-1.6,4.5-0.3,5.1c0.9,0.4,1.5,1,1.5,2c-0.3,5.6,1.2,12.9,1.9,14.9
					c0.9,2.6,2.4,7.4,9.3,8.6c5.8,1,16.4,1.5,21.9-0.2c10-3,14.2-18,14.4-23.2l0,0c0.4-1.8,5.8-1.8,6.2,0l0,0
					c0.2,5.1,4.4,20.2,14.4,23.2c5.5,1.7,16.1,1.2,21.9,0.2c6.9-1.2,8.4-6,9.3-8.6c0.7-2,2.2-9.3,1.9-14.9c-0.1-1,0.6-1.6,1.5-2
					C153.4,78.1,153.2,74.4,151.8,73.6z M81.4,101.4c-5.1,1.5-14.3,1.6-19.7,0.7c-4.5-0.8-6.4-3.3-7.7-7c-1.5-4.4-1.9-13.5,0.2-16.5
					c6.8-10,33.9-8.1,38.8-0.6C95.2,81.3,90.9,98.5,81.4,101.4z M146,95c-1.3,3.8-3.2,6.2-7.7,7c-5.4,0.9-14.7,0.8-19.7-0.7
					c-9.5-2.8-13.8-20.1-11.6-23.4c4.9-7.5,32-9.4,38.8,0.6C147.9,81.5,147.5,90.6,146,95z"/>
				<path id="SvgjsPath3591" class="st46" d="M118.6,101.3c2.8,0.8,6.9,1.2,10.9,1.3c-12.5,1.2-15.4-3.4-17.1-5.2
					c-3.5-3.6-5.7-8.9-5.8-16.7C106.5,86.9,110.8,99,118.6,101.3z M93.7,73.7c-9.4-7.2-35.3-5.6-45.5-0.2
					C71.4,67.1,84.9,70.4,93.7,73.7z M61.7,102c-4.5-0.8-6.4-3.3-7.7-7c-1.3-3.9-1.8-11.6-0.4-15.3c-1.8,4.2-1.1,12.4,0.3,16.5
					c1.6,4.8,4.5,7.2,17.3,6.5C67.7,102.7,64.2,102.4,61.7,102z M153,76.3c0-1.1-0.4-2.3-1.2-2.7c-10-5.4-35.1-6.9-44.9-0.2
					C120,68.1,139,67.3,153,76.3z"/>
			</g>
		</g>
	</g>
	<rect id="SvgjsRect1033" x="0" y="185" class="st47" width="200" height="15"/>
</g>
</svg>
